<svg width="14" height="14" viewBox="0 0 14 14" fill="none" xmlns="http://www.w3.org/2000/svg">
<rect width="14" height="14" fill="#BCBCBC"/>
<g id="Discovery">
<path d="M-662 -2836C-662 -2837.1 -661.105 -2838 -660 -2838H614C615.105 -2838 616 -2837.1 616 -2836V1171C616 1172.1 615.105 1173 614 1173H-660C-661.105 1173 -662 1172.1 -662 1171V-2836Z" fill="#F2F2F2"/>
<g id="gsDetails">
<rect width="360" height="800" transform="translate(-41 -537)" fill="#FDFDFD"/>
<g id="bodyContainer" clip-path="url(#clip0_1743_49830)">
<rect width="360" height="1504" transform="translate(-41 -451)" fill="#FDFDFD"/>
<g id="section_1">
<rect width="360" height="652" transform="translate(-41 -367)" fill="#FDFDFD"/>
<g id="Frame 1244830088">
<g id="Frame 48097012">
<g id="fin/info-container">
<path id="infoIcon" d="M7 0.34375C3.3125 0.34375 0.34375 3.3125 0.34375 7C0.34375 10.6875 3.3125 13.6562 7 13.6562C10.6875 13.6562 13.6562 10.6875 13.6562 7C13.6562 3.3125 10.6875 0.34375 7 0.34375ZM7 10.3438C6.625 10.3438 6.34375 10.0312 6.34375 9.65625V7C6.34375 6.625 6.625 6.34375 7 6.34375C7.375 6.34375 7.65625 6.625 7.65625 7V9.65625C7.65625 10.0312 7.375 10.3438 7 10.3438ZM7.65625 5H6.34375V3.65625H7.65625V5Z" fill="#2A2A2A"/>
</g>
</g>
</g>
</g>
</g>
</g>
<path d="M-660 -2837H614V-2839H-660V-2837ZM615 -2836V1171H617V-2836H615ZM614 1172H-660V1174H614V1172ZM-661 1171V-2836H-663V1171H-661ZM-660 1172C-660.552 1172 -661 1171.55 -661 1171H-663C-663 1172.66 -661.657 1174 -660 1174V1172ZM615 1171C615 1171.55 614.552 1172 614 1172V1174C615.657 1174 617 1172.66 617 1171H615ZM614 -2837C614.552 -2837 615 -2836.55 615 -2836H617C617 -2837.66 615.657 -2839 614 -2839V-2837ZM-660 -2839C-661.657 -2839 -663 -2837.66 -663 -2836H-661C-661 -2836.55 -660.552 -2837 -660 -2837V-2839Z" fill="white" fill-opacity="0.1"/>
</g>
<defs>
<clipPath id="clip0_1743_49830">
<rect width="360" height="1504" fill="white" transform="translate(-41 -451)"/>
</clipPath>
</defs>
</svg>
